<svg version="1.1" id="Layer_1" xmlns="http://www.w3.org/2000/svg" xmlns:xlink="http://www.w3.org/1999/xlink" x="0px" y="0px"
	 width="100%" viewBox="0 0 225 225" enable-background="new 0 0 225 225" xml:space="preserve">
<path fill="#FEFEFE" opacity="1.000000" stroke="#8095AF" 
	d="
M156.000000,226.000000 
	C104.000000,226.000000 52.500008,226.000000 1.000007,226.000000 
	C1.000005,151.000000 1.000005,76.000015 1.000002,1.000017 
	C75.999992,1.000011 150.999985,1.000011 225.999969,1.000006 
	C225.999985,75.999985 225.999985,150.999969 226.000000,225.999969 
	C202.833328,226.000000 179.666672,226.000000 156.000000,226.000000 
M90.499977,207.082245 
	C124.320793,207.082214 158.141647,207.115295 191.962402,207.070587 
	C214.762070,207.040451 228.181305,184.032104 216.544052,164.436508 
	C190.453491,120.503456 164.184082,76.675652 137.782837,32.928501 
	C126.343948,13.974142 100.663612,13.958702 89.230972,32.902164 
	C62.828377,76.650299 36.575119,120.489441 10.463311,164.411774 
	C-1.177028,183.991837 12.219085,207.017273 35.020290,207.073166 
	C53.180080,207.117691 71.340073,207.082214 90.499977,207.082245 
z"/>
<path fill="#020202" opacity="1.000000" stroke="none" 
	d="
M89.999969,207.082245 
	C71.340073,207.082214 53.180080,207.117691 35.020290,207.073166 
	C12.219085,207.017273 -1.177028,183.991837 10.463311,164.411774 
	C36.575119,120.489441 62.828377,76.650299 89.230972,32.902164 
	C100.663612,13.958702 126.343948,13.974142 137.782837,32.928501 
	C164.184082,76.675652 190.453491,120.503456 216.544052,164.436508 
	C228.181305,184.032104 214.762070,207.040451 191.962402,207.070587 
	C158.141647,207.115295 124.320793,207.082214 89.999969,207.082245 
M48.552170,137.031021 
	C41.649273,148.571854 34.839314,160.169861 27.792065,171.621857 
	C25.390270,175.524857 23.679264,179.298080 26.106157,183.689758 
	C28.657803,188.307190 33.065243,188.758026 37.745934,188.749924 
	C64.411911,188.703781 91.078003,188.727570 117.744057,188.727539 
	C142.076828,188.727524 166.409775,188.780212 190.742294,188.701370 
	C200.455292,188.669891 204.967010,181.357315 200.194321,173.367966 
	C174.228592,129.902069 148.215607,86.464302 122.151421,43.057358 
	C117.527168,35.356182 109.399811,35.487354 104.727798,43.270020 
	C86.101265,74.298225 67.537102,105.363876 48.552170,137.031021 
z"/>
<path fill="#FDFDFD" opacity="1.000000" stroke="none" 
	d="
M48.751007,136.723343 
	C67.537102,105.363876 86.101265,74.298225 104.727798,43.270020 
	C109.399811,35.487354 117.527168,35.356182 122.151421,43.057358 
	C148.215607,86.464302 174.228592,129.902069 200.194321,173.367966 
	C204.967010,181.357315 200.455292,188.669891 190.742294,188.701370 
	C166.409775,188.780212 142.076828,188.727524 117.744057,188.727539 
	C91.078003,188.727570 64.411911,188.703781 37.745934,188.749924 
	C33.065243,188.758026 28.657803,188.307190 26.106157,183.689758 
	C23.679264,179.298080 25.390270,175.524857 27.792065,171.621857 
	C34.839314,160.169861 41.649273,148.571854 48.751007,136.723343 
M122.892021,121.109512 
	C122.891953,109.797676 122.922607,98.485733 122.880302,87.174057 
	C122.854805,80.356834 119.139221,75.994896 113.500206,75.994751 
	C107.861198,75.994606 104.145210,80.356628 104.119698,87.173645 
	C104.077370,98.485321 104.076172,109.797394 104.119896,121.109062 
	C104.146317,127.944893 107.392654,131.863419 113.052185,132.084274 
	C118.830994,132.309769 122.007118,129.058060 122.892021,121.109512 
M122.756310,158.944565 
	C122.163193,157.586746 121.771523,156.088577 120.940887,154.896225 
	C117.899628,150.530502 111.996849,149.763992 107.761314,153.052216 
	C103.638046,156.253281 102.959503,162.354111 106.392113,166.302017 
	C109.033363,169.339722 112.377808,170.400192 116.267975,169.149658 
	C120.815674,167.687759 122.747482,164.315903 122.756310,158.944565 
z"/>
<path fill="#050505" opacity="1.000000" stroke="none" 
	d="
M122.891891,121.559990 
	C122.007118,129.058060 118.830994,132.309769 113.052185,132.084274 
	C107.392654,131.863419 104.146317,127.944893 104.119896,121.109062 
	C104.076172,109.797394 104.077370,98.485321 104.119698,87.173645 
	C104.145210,80.356628 107.861198,75.994606 113.500206,75.994751 
	C119.139221,75.994896 122.854805,80.356834 122.880302,87.174057 
	C122.922607,98.485733 122.891953,109.797676 122.891891,121.559990 
z"/>
<path fill="#060606" opacity="1.000000" stroke="none" 
	d="
M122.813431,159.330673 
	C122.747482,164.315903 120.815674,167.687759 116.267975,169.149658 
	C112.377808,170.400192 109.033363,169.339722 106.392113,166.302017 
	C102.959503,162.354111 103.638046,156.253281 107.761314,153.052216 
	C111.996849,149.763992 117.899628,150.530502 120.940887,154.896225 
	C121.771523,156.088577 122.163193,157.586746 122.813431,159.330673 
z"/>
</svg>